<svg xmlns:svg="http://www.w3.org/2000/svg" xmlns="http://www.w3.org/2000/svg" version="1.1" viewBox="0 0 180.41 200.99" id="svg3007" width="100%" height="100%" class="logo">
  <path style="stroke-width:0.2;stroke-linejoin:round" d="M 59.2,157 C 51.8,162 44.5,166 35.7,168 26.9,171 22.6,179 15.3,184 9.85,188 5.06,192 14.4,194 20.8,193 23.7,203 15.7,200 8.99,200 -1.72,203 0.523,192 -0.699,181 13.7,175 17.3,165 22.7,158 32.6,157 37.6,149 38.7,147 46,141 40.7,144 39.7,139 52.2,125 42.3,133 42,127 51.3,124 48.2,120 51.6,117 67.2,113 54.9,114 42.1,115 26.7,107 24.4,93.5 24.4,88.4 34.4,103 34.6,99.1 27.5,91.5 24.8,80.4 28.4,70.5 28.8,65.8 32.7,58.1 30.7,67.7 29.3,70.8 31.4,85.2 31.7,75.3 31.7,64.1 39.6,54.3 50.1,50.9 45,60.7 61.2,49.4 57.9,42.7 59.3,36.8 42.7,26.1 55.7,30.6 67.5,35.6 79.4,44.9 81.3,58.3 84.6,67.7 74.2,73.5 71.2,82.2 67.2,87.6 66.3,99.4 75.4,98.9 84.6,96.4 94.7,93.1 103,88 112,82.4 118,74.1 125,67.2 130,62.6 129,55.4 122,59.7 116,61.8 108,57.1 116,52.8 124,45.1 126,34.4 130,24.7 138,19.5 136,6.96 142,0 148,-0.597 152,10.3 154,10.4 165,11.5 151,27.3 163,30.5 169,32.9 162,31.9 163,33.2 165,35 172,42.9 166,39.1 171,44.5 170,45.6 167,44.7 169,47.6 172,50.4 175,53.3 167,49.5 186,63.7 175,59.4 177,63.4 183,72.1 176,65.6 174,66.3 179,76.3 178,81.2 177,75.9 174,72.5 175,80.2 175,85.6 173,92.5 173,83.5 169,77.5 167,93.3 170,96.7 173,99.6 170,112 170,103 168,93.4 168,112 163,114 159,122 161,133 155,141 152,150 150,159 150,169 150,177 144,195 156,194 162,199 159,201 153,200 149,199 144,202 142,198 139,187 140,175 140,164 140,154 141,145 140,135 133,148 129,163 127,178 127,186 122,196 133,198 137,204 122,200 118,200 112,194 118,182 118,174 119,166 118,158 120,150 120,144 125,135 116,139 111,141 103,138 105,146 105,150 104,164 99.8,161 94.7,162 84.6,172 81,179 78.2,186 81.3,196 90.7,195 100,202 83.2,201 78.3,201 69.5,197 72.8,184 69.1,177 64.4,164 81.9,166 81.7,156 81.5,150 77.4,142 77.6,139 68.8,142 63.3,149 59.2,157 z" id="path3009"/>
</svg>
