<svg version="1.1" class="github-icon-svg" xmlns="http://www.w3.org/2000/svg"
    xmlns:xlink="http://www.w3.org/1999/xlink" x="0px" y="0px" viewBox="0 0 2000 2000">
    <path fill="#C2C2C2" d="M 1730,1190 C 1750,1130 1760,1070 1760,1000 1750,880 1720,
                        746 1560,810 1490,841 1430,902 1390,964 1340,1040 1280,1110 1230,
                        1170 1170,1240 1110,1300 1050,1350 990,1400 922,1460 847,1490 797,
                        1520 746,1530 693,1550 687,1550 670,1560 666,1550 663,1550 665,1540 666,
                        1530 667,1520 668,1510 670,1500 685,1370 691,1230 650,1100 628,
                        1030 588,967 535,918 490,877 427,836 364,839 352,840 341,842 329,
                        845 262,868 258,941 258,1000 257,1070 265,1130 281,1190 286,
                        1210 292,1230 298,1250 372,1460 542,1640 756,1710 836,1740 921,1750 1010,
                        1750 1260,1750 1490,1630 1630,1420 1670,1360 1690,1310 1710,1250 L 1710,
                        1250 C 1720,1230 1730,1210 1730,1190 z M 1000,2000 C 448,2000 0,
                        1550 0,1000 0,448 448,0 1000,0 1550,0 2000,448 2000,1000 2000,
                        1550 1550,2000 1000,2000 z" />
</svg>
